<svg id="Layer_1" data-name="Layer 1" xmlns="http://www.w3.org/2000/svg" xmlns:xlink="http://www.w3.org/1999/xlink" viewBox="0 0 400 300"><defs><linearGradient id="linear-gradient" x1="136.67" y1="280.07" x2="196.85" y2="210.24" gradientUnits="userSpaceOnUse"><stop offset="0.01" stop-color="#2e3192" stop-opacity="0"/><stop offset="1" stop-color="#0071bc"/></linearGradient><linearGradient id="linear-gradient-2" x1="84.15" y1="234.81" x2="144.33" y2="164.98" xlink:href="#linear-gradient"/><linearGradient id="linear-gradient-3" x1="278.14" y1="205.22" x2="313.2" y2="175.86" xlink:href="#linear-gradient"/><linearGradient id="linear-gradient-4" x1="136.38" y1="163.12" x2="158.82" y2="144.33" gradientUnits="userSpaceOnUse"><stop offset="0.01" stop-color="#2e3192" stop-opacity="0"/><stop offset="1" stop-color="#9e005d"/></linearGradient><linearGradient id="linear-gradient-5" x1="162.63" y1="147.66" x2="191.31" y2="123.65" xlink:href="#linear-gradient-4"/></defs><title>91-100</title><ellipse cx="190.27" cy="201.8" rx="163.5" ry="71.35" fill="#81befe"/><path d="M164.27,270.43,97.06,249.27l88-48.88,21.89-12.17L262.32,211C256,214.88,170.48,266.42,164.27,270.43Z" opacity="0.48" fill="url(#linear-gradient)"/><polyline points="175.07 192.41 156.91 167.21 133.26 158.92 97.06 174.91 40.65 210.27 97.06 249.27 172.99 206.74" opacity="0.48" fill="url(#linear-gradient-2)"/><path d="M200.76,100.81l3.47,2.92-.53,88.71,3.08,2,4.24-2.65,4.24-91C211.42,100.78,204.61,101,200.76,100.81Z" fill="#f2f2f2"/><polyline points="164.5 142.48 133.26 158.92 132.33 166.64 165.39 147.98" fill="#e27623"/><path d="M165.77,129.88l12.87,46.41-2.36,1.36a14.67,14.67,0,0,1-1.76-1.09c-.69-.53-16.7-48.77-16.7-48.77" fill="#e27623"/><polyline points="136.09 120.83 127.31 148.24 128.06 203.05 130.03 204.35 132.75 202.65 134.78 148.21 142.7 120.83" fill="#e27623"/><path d="M170.58,117.54s1,6.07-1.12,9.45-7.63-5-7.63-5" fill="#ffb469"/><polyline points="141.47 84.41 142.7 106.61 136.88 109.63 135.81 85.83" fill="#ca6b00"/><polyline points="104.92 100.76 101.01 130.76 97.06 174.91 99.6 176.41 102.12 174.83 107.75 131.45 111.53 100.76" fill="#e27623"/><path d="M108.87,104.5c-1.64.5-5.16-2.08-6.21-3.74-5.77-9.07-4.11-21.38,6.28-27.13,4.6-2.54,9.35-5.07,13.92-7.69,4.06-2.32,8.37-4.3,12.31-6.83a9,9,0,0,1,1.63-.9c2-.77,4.66.36,5.91,2" fill="#ffb469"/><path d="M108.44,104.11c-2.78-.1-4.37-3.78-5.19-5.95-2.26-6-2.69-17.27,4.09-20.67a.81.81,0,0,0,.48-.65l13-7.52,10.07-5.81c1.76-1,3.43-2.17,5.19-3.2s3.49-2.21,5.43-1c2.13,1.28,2.42,3.69,2.75,5.94a36,36,0,0,1-.8,15.57c-1.06,3.37-3.73,5.68-6.69,7.4l-9.35,5.42-17.34,10a3.7,3.7,0,0,1-.9.42A2.59,2.59,0,0,1,108.44,104.11Z" fill="#fcbd4c"/><path d="M106.54,128.14l-.53.3a13,13,0,0,0-3.88,2.93c-2.63,3.3-.09,7.07,2.52,9.38,7.05,6.27,17.74,11.4,27.31,9.08,8.32-2,16.09-5.91,23.39-10.3,6-3.6,13.47-7.94,15-15.36.72-3.43-.61-6.66-2.84-9.24-15-17.4-36.14-1.06-51,7.45Z" fill="#ffb469"/><path d="M101.34,128.82c-.12.11-.79,4.92-.31,6.36a17.93,17.93,0,0,0,4.31,6.16c1.75,1.41.7-8.41.7-8.41" fill="#ffb469"/><path d="M106.54,124l-.53.3a13,13,0,0,0-3.88,2.93c-2.63,3.3-.09,7.07,2.52,9.38,7.05,6.27,17.74,11.4,27.31,9.08,8.32-2,16.09-5.91,23.39-10.3,6-3.6,13.47-7.94,15-15.36.72-3.43-.61-6.66-2.84-9.24-15-17.4-36.14-1.06-51,7.45Z" fill="#fcbd4c"/><path d="M120.09,153l1.16,85,3.08,2,4.24-2.65,3.12-83.7Q125.88,153.42,120.09,153Z" fill="#f2f2f2"/><path d="M251.88,126.67,255,210.41l4.24,2.65,3.08-2,.61-91C259,120,255.62,127.63,251.88,126.67Z" fill="#f2f2f2"/><path d="M197.47,209.34a31.47,31.47,0,0,0-6.26-3.82c-2.31-1-8.95-8.76-9.45-9.54s-1.63-4.47-2.82-4.72-3.88,1.16-3.88,1.16-3.75-3.85-7-2.63c0,0-3,1.6-2.94,10.17a2,2,0,0,0-.28.21,34.88,34.88,0,0,0-.32,4,11.41,11.41,0,0,0,5,4.55c2.62,1.38,8.32,6.2,12,7.17s10.95.59,13.39-.35a4.38,4.38,0,0,0,2.94-3.56A3.83,3.83,0,0,0,197.47,209.34Z" fill="#e05e00"/><path d="M175.84,192.09s-4.4-3.63-7.75-2.3-2.93,9-2.93,9,0,4.39,5.33,7,4.43,4.84,11.38,7,14.33.43,15.68-1.67-3-3.93-3.3-4.2-6.54-4.1-7.95-6-3.93-5.21-4.82-6.85-1.22-3.09-2.92-3A5.14,5.14,0,0,0,175.84,192.09Z" fill="#ffc019"/><path d="M188.75,202.9h0a16.69,16.69,0,0,0-2.77-.34q.28-.83.54-1.67a9.77,9.77,0,0,1-.67-.76l-.06.05a11.31,11.31,0,0,0-2.05-.19l.59-1.08a.45.45,0,0,0,.06-.31.38.38,0,0,0-.27-.35.5.5,0,0,0-.25-.05c-.79-.15-1.58-.28-2.37-.38q.37-.61.79-1.18c.36-.5-.46-1-.82-.48a16,16,0,0,0-1,1.56,13.34,13.34,0,0,0-4.23.26c-.6.14-.34,1.06.25.92a11.9,11.9,0,0,1,3.5-.27A16.29,16.29,0,0,0,179,201c-.47.28,0,1,.54.79a10,10,0,0,1,2.54-.76q-.32.63-.62,1.26a6.11,6.11,0,0,0-.3.64.68.68,0,0,1-.09.17h0a.48.48,0,0,0,.31.9,15.72,15.72,0,0,1,3.25-.51q-.4,1.15-.83,2.3a.48.48,0,0,0,.7.54,33.75,33.75,0,0,1,4.35-2.46l.14,0a.47.47,0,0,0,.58-.38C189.28,203.35,189,203.12,188.75,202.9Zm-8.61-2.32a15.1,15.1,0,0,1,.81-1.86c.73.08,1.46.2,2.18.33l-.54,1A11.2,11.2,0,0,0,180.13,200.58Zm2.2,2.27c.14-.36.26-.72.39-1s.31-.61.47-.91a10.28,10.28,0,0,1,2.22.15q-.23.73-.48,1.46A16.58,16.58,0,0,0,182.33,202.85Zm2.85,1.94q.23-.64.45-1.27a15.24,15.24,0,0,1,1.62.11C186.54,204,185.85,204.38,185.18,204.79Z" fill="#e05e00"/><path d="M181.74,213.17a31.47,31.47,0,0,0-6.26-3.82c-2.31-1-8.95-8.76-9.45-9.54s-1.63-4.47-2.82-4.72-3.88,1.16-3.88,1.16-3.75-3.85-7-2.63c0,0-3,1.6-2.94,10.17a2,2,0,0,0-.28.21,34.88,34.88,0,0,0-.32,4,11.41,11.41,0,0,0,5,4.55c2.62,1.38,8.32,6.2,12,7.17s10.95.59,13.39-.35a4.38,4.38,0,0,0,2.94-3.56A3.83,3.83,0,0,0,181.74,213.17Z" fill="#e05e00"/><path d="M160.12,195.92s-4.4-3.63-7.75-2.3-2.93,9-2.93,9,0,4.39,5.33,7,4.43,4.84,11.38,7,14.33.43,15.68-1.67-3-3.93-3.3-4.2-6.54-4.1-7.95-6-3.93-5.21-4.82-6.85-1.22-3.09-2.92-3A5.14,5.14,0,0,0,160.12,195.92Z" fill="#ffc019"/><path d="M173,206.73h0a16.69,16.69,0,0,0-2.77-.34q.28-.83.54-1.67a9.77,9.77,0,0,1-.67-.76L170,204a11.31,11.31,0,0,0-2.05-.19l.59-1.08a.45.45,0,0,0,.06-.31.38.38,0,0,0-.27-.35.5.5,0,0,0-.25-.05c-.79-.15-1.58-.28-2.37-.38q.37-.61.79-1.18c.36-.5-.46-1-.82-.48a16,16,0,0,0-1,1.56,13.34,13.34,0,0,0-4.23.26c-.6.14-.34,1.06.25.92a11.9,11.9,0,0,1,3.5-.27,16.29,16.29,0,0,0-.94,2.41c-.47.28,0,1,.54.79a10,10,0,0,1,2.54-.76q-.32.63-.62,1.26a6.11,6.11,0,0,0-.3.64.68.68,0,0,1-.09.17h0a.48.48,0,0,0,.31.9,15.72,15.72,0,0,1,3.25-.51q-.4,1.15-.83,2.3a.48.48,0,0,0,.7.54,33.75,33.75,0,0,1,4.35-2.46l.14,0a.47.47,0,0,0,.58-.38C173.55,207.18,173.28,207,173,206.73Zm-8.61-2.32a15.1,15.1,0,0,1,.81-1.86c.73.08,1.46.2,2.18.33l-.54,1A11.2,11.2,0,0,0,164.41,204.41Zm2.2,2.27c.14-.36.26-.72.39-1s.31-.61.47-.91a10.28,10.28,0,0,1,2.22.15q-.23.73-.48,1.46A16.58,16.58,0,0,0,166.6,206.68Zm2.85,1.94q.23-.64.45-1.27a15.24,15.24,0,0,1,1.62.11C170.82,207.82,170.13,208.21,169.45,208.62Z" fill="#e05e00"/><path d="M153.75,98.8c1,2.17,26.4,34.18,30.92,42.9s-3,50.44-3,50.44-9.06,4-16.1-.38c0,0-.39-34.51-2.47-36.89S135.88,132.14,133.28,128s7.17-27.46,7.17-27.46" fill="#68e1fd"/><path d="M139.24,104.61c1,2.17,26.4,34.18,30.92,42.9s-3,50.44-3,50.44-9.06,4-16.1-.38c0,0-.39-34.51-2.47-36.89s-27.58-22.5-29.76-26.87c-6.75-13.49.51-30.9.51-30.9" fill="#68e1fd"/><path d="M152.32,87.24c.46-5.2,1.7-10.29,2.15-15.48,1-11.71-5.84-19-16.39-20.82a69.23,69.23,0,0,0-16.13,12.35c-4.8,5.4-4.47,27.87-4.47,27.87,1,6.21.39,11,.69,14.31,7.9,8.06,22.33,4,32-1.83C151.88,98.34,151.83,92.77,152.32,87.24Z" fill="#8fdb5e"/><path d="M136.38,40.51H135.3a.64.64,0,0,0,0,1.28h1.08A.64.64,0,0,0,136.38,40.51Z" fill="#1c5028"/><path d="M145.56,46a9.84,9.84,0,0,1-10.06,2c-.78-.27-1.12,1-.34,1.24a11.13,11.13,0,0,0,11.31-2.34C147.08,46.36,146.17,45.46,145.56,46Z" fill="#1c5028"/><path d="M150.15,37.72S149,53.57,145,54.33,136.54,53,135.15,51s-4.35-12-2.92-13.83S147.91,34.82,150.15,37.72Z" fill="#ffb92c"/><path d="M134.25,48.77l-.6,7.82s2.41,2,9.39-.33l1-4.53" fill="#ffb92c"/><path d="M152.76,32.12a6.46,6.46,0,0,0-2.8-.44,6.26,6.26,0,0,0-2.17-3.47,6.55,6.55,0,0,0-6.83-.55,5,5,0,0,0-1.05.75,5.84,5.84,0,0,0-4.53-1.53,4.93,4.93,0,0,0-4.2,3.27,4.14,4.14,0,0,0-.2,1.53,4.7,4.7,0,0,0-4.22,3.3,4.67,4.67,0,0,0,.58,4.09,4.11,4.11,0,0,0-.91,4.35,4.56,4.56,0,0,0,3.66,2.89,4.36,4.36,0,0,0-.13,2.34c.83,1.88,3.1,2.67,5.21,3.15.09-1,.19-2,.25-3a1.07,1.07,0,0,1,.07-.27,8.82,8.82,0,0,1-1.79-2.2c-.67-1.09-1.15-2.64,0-3.63s2.75-.4,3.53.79A12.06,12.06,0,0,1,138,42h0c1-2.54,3.65-2.81,6.14-2.83,3.77,2,9.29,3.43,10.82-1.37C155.65,35.65,155,33.05,152.76,32.12Z" fill="#1c5028"/><path d="M138,42s-.62,4.67.38,5.53,3.72,1.21,5.66,1.07,3.8.07,4.45,0c0,0-1.36,4.86-2.94,6.2s-5.8-.11-6.81-.74S136.2,49,136.2,49l.18-6.85Z" fill="#1c5028"/><path d="M162,175.95l3.47,2.92L165,267.58l3.08,2,4.24-2.65,4.24-91C172.67,175.91,165.86,176.11,162,175.95Z" fill="#f2f2f2"/><polygon points="262.93 111.46 262.93 120.03 257.67 120.03 262.93 111.46" fill="#d3514a"/><polygon points="116.62 151.29 116.62 143.99 121.26 149.82 116.62 151.29" fill="#d3514a"/><path d="M189.83,99l-63.44,36.25s-20.39,13.59-2.27,29.45,43,15.86,58.91,9.06S255.54,133,255.54,133s21.67-16.28-9.06-34S189.83,99,189.83,99Z" fill="#d3514a"/><path d="M189.83,92l-63.44,36.25S106,141.84,124.13,157.7s43,15.86,58.91,9.06S255.54,126,255.54,126s21.67-16.28-9.06-34S189.83,92,189.83,92Z" fill="#f1756b"/><path d="M327.66,184.69l-8-11.12-10.48-3.67-16,7.08-25,15.67,20.13,13.92C301.28,199.08,314.87,192.56,327.66,184.69Z" opacity="0.48" fill="url(#linear-gradient-3)"/><path d="M287,93.1a15.32,15.32,0,0,1,7.46,1.46,12.12,12.12,0,0,1,5.26,6c1.14,2.41,1.65,5.85,4,7.41a7,7,0,0,1,2.36,2.05c1,1.57,1.61,4,.73,5.72-1.06,2.12-5.47,3.42-7.49,3" fill="#8fdb5e"/><path d="M285,93.37a15.78,15.78,0,0,0-2.23.38c-4.89,1.53-9.24,5.6-10.47,10.52a19,19,0,0,0-.09,9c.57,2.38,2,6.51,4.89,6.69,3.93.24,5.2-3.44,6.45-6.46s2.53-6.34,5.69-7.53a8.46,8.46,0,0,1,9.07,2Z" fill="#1e8c0e"/><path d="M303,109.33c-2.37-3.07-4.34-6.42-6.64-9.55C295,98,293.61,95.7,291.74,94.2c-5.46-2.65-12.34-.22-16.37,4.43.56.17,1.32.2,1.75.36a15.56,15.56,0,0,1,6.26,4.43c2.42,2.68,4.3,6,6.44,8.79,3.47,4.61,8.08,8.41,14,5.65C307.65,116.09,304.66,111.5,303,109.33Z" fill="#8fdb5e"/><path d="M322.27,69.81s12.31-1,12.08,18.5S315.72,95,319.76,83.24" fill="#1e8c0e"/><path d="M320.49,89C320.36,83,327,78.72,332.63,78c-.89-3.41-4.34-8.87-11.13-8.7-8.43.22-14.74,8.78-16.16,18.87s6.2,16.48,6.2,16.48l4.07,3.47C323.09,105.16,320.31,94.37,320.49,89Z" fill="#8fdb5e"/><path d="M354,102.9a25.71,25.71,0,0,0-2.85-10.58,11.64,11.64,0,0,0-8-6.2l-6.93,13.35s10.33-18.06,6.11-4.15,9.69,29.5,11.59,8.76C354,103.67,354,103.29,354,102.9Z" fill="#1e8c0e"/><path d="M305,137.65s-9.26,6-6.69,20.12a77.39,77.39,0,0,0,4.11,14.29c1.79,4.58,3.11,10.51,7.74,13.09,4.3,2.41,11,2.85,15.31.2,4-2.42,5.39-7.93,6.85-12a74.7,74.7,0,0,0,3.56-15.56C340.29,123.69,305,137.65,305,137.65Z" fill="#68e1fd"/><ellipse cx="317.52" cy="139.71" rx="13.51" ry="4.89" fill="#34323d"/><path d="M318.61,113.68c-1.89-4.56-5.41-8.38-6.53-13.26A17.36,17.36,0,0,1,319,82.69c1-.75,0-2.48-1-1.73-8.64,6.27-10.31,17-5.27,26.11,1.56,2.83,3.6,5.54,4.55,8.66,1.24,4.07-.14,7-2.05,10.05,0-3.09-1.05-6.38-3-8.19-2.24-2.08-5.56-2.43-8.34-3.37-5.38-1.82-10.11-4.89-11-10.89-.19-1.27-2.12-.73-1.93.53.75,4.91,4,8.41,8.31,10.64,2.56,1.31,5.32,1.87,8,2.79a9.33,9.33,0,0,1,5.28,5.17c1.27,2.94.41,5-.31,7.81-.93,3.7-2.41,6.88.14,10.38.75,1,2.48,0,1.73-1-4.05-5.58,2.42-10.9,4.6-15.7A12.35,12.35,0,0,0,318.61,113.68Z" fill="#1e8c0e"/><path d="M343.53,101.43c-8.53-1.5-14.35,5.11-13.85,13.37a31.35,31.35,0,0,0,1.15,6.12c.38,1.45,1.38,3.88,1.12,5.31a8.07,8.07,0,0,1-4.88,5.7c-3.7,1.75-6.09,3.85-7.2,7.91a1,1,0,0,0,1.93.53c2-7.23,12.08-6.19,12.15-14.15,0-3.89-2-7.54-2.27-11.43-.42-6.81,4-12.73,11.32-11.45C344.26,103.58,344.8,101.65,343.53,101.43Z" fill="#1e8c0e"/><path d="M351.17,92.33c-3.31-6.1-9.32-7.53-15.22-5.72a19.41,19.41,0,0,0-2.37,1.15c-14.83,11-4.3,35.78-2,35.59,7.56-.62,6.77-5.07,9.3-17.5a11.73,11.73,0,0,1,11.8-9.94A22,22,0,0,0,351.17,92.33Z" fill="#8fdb5e"/><path d="M347.91,88.28a12.36,12.36,0,0,0-12.64,6.06c-5.42,9.07-4.17,19.63-3.45,29.63.09,1.27,2.09,1.28,2,0-.52-7.23-1.54-14.38.42-21.49,1-3.48,2.12-7.36,4.91-9.85A10.24,10.24,0,0,1,350.32,91c-.26-.34-.51-.68-.76-1C349,89.44,348.45,88.86,347.91,88.28Z" fill="#1e8c0e"/><path d="M159.73,150.21a15.88,15.88,0,0,0-2.17-2.43,17.57,17.57,0,0,0-1.73-1.13A6.19,6.19,0,0,1,152,143l-5.63,2.49-16,10,12.88,8.91c6.21-3.57,12.63-6.8,18.88-10.3A32.38,32.38,0,0,0,159.73,150.21Z" opacity="0.48" fill="url(#linear-gradient-4)"/><path d="M182.74,130.78a15.88,15.88,0,0,0-2.17-2.43,17.57,17.57,0,0,0-1.73-1.13,6.19,6.19,0,0,1-3.83-3.61l-5.63,2.49-16,10,20.44,14.3c6.21-3.57,17.74-9.41,24-12.91C197.09,136.14,183.64,132,182.74,130.78Z" opacity="0.48" fill="url(#linear-gradient-5)"/><polyline points="185.44 147.75 155.6 130.37 195.18 107.62 224.96 123.71" fill="#68e1fd"/><polyline points="185.44 147.75 155.6 130.37 195.18 107.62 224.96 123.71" opacity="0.38"/><path d="M193.16,113.46s-7.83,34.72-7.72,34.29,38.63-21.13,38.89-21.87,10.19-36,10.19-36Z" fill="#68e1fd"/><path d="M159,114.77l4.93,1s5.79,1.2,5.68,1.93-5.68.72-5.68.72,8,2.7,8.3,3.69-1.48,1-1.48,1,1.26,1.41.38,2.47-2.15,0-2.15,0,2,1.43.25,2-5.31-2.36-5.31-2.36a3.45,3.45,0,0,1-1,2c-.82.63-10.16-6.57-11.59-8.72" fill="#ffb92c"/><path d="M131.69,88.86s26.66,22.74,27.29,24.6S153,119,148.82,120c-2.09.49-5.08-1.29-6.86-2.14a84.93,84.93,0,0,1-11-6.4,66.88,66.88,0,0,1-10.32-8.34c-3.63-3.7-5.29-7.34-5.14-12.66.23-8.16.78-19.37,5.74-26.26,0,0,3.78-5.22,8.29-1.2C129.55,63,136.57,69.25,131.69,88.86Z" fill="#008404"/><path d="M181.08,97.64c.39,0,10.83,3.8,10.83,3.8l8.88,6a1.82,1.82,0,0,1-1.35.77s.92.8.08,1.39a1.32,1.32,0,0,1-1.57,0,2.65,2.65,0,0,1-2,1c-1.17-.08-7.39-4.73-7.94-4.11s3,2.39,2.2,3.5-4-.83-5.1-1.77-6.47-5.94-6.47-5.94" fill="#ffb92c"/><path d="M153.57,63s6.25,19,8.44,21.11,22,12.59,22,12.59.2,7.42-6.81,9.76c0,0-19.49-4.14-25.83-13.31" fill="#008404"/><ellipse cx="156.37" cy="150.12" rx="8.79" ry="4.73" fill="#fff"/><polyline points="147.58 150.12 145.97 128.21 167.48 128.74 165.16 150.12" fill="#fff"/><ellipse cx="156.75" cy="128.21" rx="10.78" ry="6.09" fill="#cf6938"/><path d="M148.37,125.25v3s.91,4,8.54,4,8.24-4.43,8.24-4.43v-2.22" fill="#fc8754"/><ellipse cx="156.77" cy="125.58" rx="8.39" ry="4.88" fill="#cf6938"/><ellipse cx="156.91" cy="125.25" rx="7.03" ry="3.96" fill="#fc8754"/></svg>